{
    "asset" : {
        "generator" : "Khronos glTF Blender I/O v1.8.19",
        "version" : "2.0"
    },
    "scene" : 0,
    "scenes" : [
        {
            "name" : "Scene",
            "nodes" : [
                0
            ]
        }
    ],
    "nodes" : [
        {
            "mesh" : 0,
            "name" : "Bed"
        }
    ],
    "materials" : [
        {
            "doubleSided" : true,
            "name" : "black.001",
            "pbrMetallicRoughness" : {
                "baseColorFactor" : [
                    0.01917400024831295,
                    0.01917400024831295,
                    0.01917400024831295,
                    1
                ],
                "metallicFactor" : 0.7305700182914734,
                "roughnessFactor" : 0.5
            }
        },
        {
            "doubleSided" : true,
            "name" : "black",
            "pbrMetallicRoughness" : {
                "baseColorFactor" : [
                    0.01917400024831295,
                    0.01917400024831295,
                    0.01917400024831295,
                    1
                ],
                "metallicFactor" : 0.7305700182914734,
                "roughnessFactor" : 0.5
            }
        },
        {
            "doubleSided" : true,
            "name" : "black.002",
            "pbrMetallicRoughness" : {
                "baseColorFactor" : [
                    0.01917400024831295,
                    0.01917400024831295,
                    0.01917400024831295,
                    1
                ],
                "metallicFactor" : 0.7305700182914734,
                "roughnessFactor" : 0.5
            }
        },
        {
            "doubleSided" : true,
            "name" : "Material.008",
            "pbrMetallicRoughness" : {
                "baseColorFactor" : [
                    0.23226100206375122,
                    0.23226100206375122,
                    0.23226100206375122,
                    1
                ],
                "roughnessFactor" : 0.5
            }
        },
        {
            "doubleSided" : true,
            "name" : "Material.003",
            "pbrMetallicRoughness" : {
                "baseColorFactor" : [
                    0.23226100206375122,
                    0.23226100206375122,
                    0.23226100206375122,
                    1
                ],
                "roughnessFactor" : 0.5
            }
        },
        {
            "doubleSided" : true,
            "name" : "Material.009",
            "pbrMetallicRoughness" : {
                "baseColorFactor" : [
                    0.4163999855518341,
                    0.4163999855518341,
                    0.4163999855518341,
                    1
                ],
                "metallicFactor" : 0.7305700182914734,
                "roughnessFactor" : 0.5
            }
        }
    ],
    "meshes" : [
        {
            "name" : "Cube.006",
            "primitives" : [
                {
                    "attributes" : {
                        "POSITION" : 0,
                        "NORMAL" : 1,
                        "TEXCOORD_0" : 2
                    },
                    "indices" : 3,
                    "material" : 0
                },
                {
                    "attributes" : {
                        "POSITION" : 4,
                        "NORMAL" : 5,
                        "TEXCOORD_0" : 6
                    },
                    "indices" : 7,
                    "material" : 1
                },
                {
                    "attributes" : {
                        "POSITION" : 8,
                        "NORMAL" : 9,
                        "TEXCOORD_0" : 10
                    },
                    "indices" : 11,
                    "material" : 2
                },
                {
                    "attributes" : {
                        "POSITION" : 12,
                        "NORMAL" : 13,
                        "TEXCOORD_0" : 14
                    },
                    "indices" : 15,
                    "material" : 3
                },
                {
                    "attributes" : {
                        "POSITION" : 16,
                        "NORMAL" : 17,
                        "TEXCOORD_0" : 18
                    },
                    "indices" : 19,
                    "material" : 4
                },
                {
                    "attributes" : {
                        "POSITION" : 20,
                        "NORMAL" : 21,
                        "TEXCOORD_0" : 22
                    },
                    "indices" : 23,
                    "material" : 5
                }
            ]
        }
    ],
    "accessors" : [
        {
            "bufferView" : 0,
            "componentType" : 5126,
            "count" : 113,
            "max" : [
                2.6438050270080566,
                0.4147595763206482,
                -1.0842232704162598
            ],
            "min" : [
                0.29053157567977905,
                0.36223262548446655,
                -1.9308147430419922
            ],
            "type" : "VEC3"
        },
        {
            "bufferView" : 1,
            "componentType" : 5126,
            "count" : 113,
            "type" : "VEC3"
        },
        {
            "bufferView" : 2,
            "componentType" : 5126,
            "count" : 113,
            "type" : "VEC2"
        },
        {
            "bufferView" : 3,
            "componentType" : 5123,
            "count" : 420,
            "type" : "SCALAR"
        },
        {
            "bufferView" : 4,
            "componentType" : 5126,
            "count" : 1988,
            "max" : [
                0.7851955890655518,
                1.4236912727355957,
                -1.5106877088546753
            ],
            "min" : [
                0.32215452194213867,
                0.39412277936935425,
                -1.9467642307281494
            ],
            "type" : "VEC3"
        },
        {
            "bufferView" : 5,
            "componentType" : 5126,
            "count" : 1988,
            "type" : "VEC3"
        },
        {
            "bufferView" : 6,
            "componentType" : 5126,
            "count" : 1988,
            "type" : "VEC2"
        },
        {
            "bufferView" : 7,
            "componentType" : 5123,
            "count" : 9720,
            "type" : "SCALAR"
        },
        {
            "bufferView" : 8,
            "componentType" : 5126,
            "count" : 4638,
            "max" : [
                2.7213735580444336,
                1.8639941215515137,
                -0.34958112239837646
            ],
            "min" : [
                0.20985671877861023,
                -0.7206463813781738,
                -2.048602342605591
            ],
            "type" : "VEC3"
        },
        {
            "bufferView" : 9,
            "componentType" : 5126,
            "count" : 4638,
            "type" : "VEC3"
        },
        {
            "bufferView" : 10,
            "componentType" : 5126,
            "count" : 4638,
            "type" : "VEC2"
        },
        {
            "bufferView" : 11,
            "componentType" : 5123,
            "count" : 13332,
            "type" : "SCALAR"
        },
        {
            "bufferView" : 12,
            "componentType" : 5126,
            "count" : 536,
            "max" : [
                2.6901464462280273,
                -0.05544930696487427,
                -1.31228768825531
            ],
            "min" : [
                0.24004687368869781,
                -0.2147013247013092,
                -1.7533302307128906
            ],
            "type" : "VEC3"
        },
        {
            "bufferView" : 13,
            "componentType" : 5126,
            "count" : 536,
            "type" : "VEC3"
        },
        {
            "bufferView" : 14,
            "componentType" : 5126,
            "count" : 536,
            "type" : "VEC2"
        },
        {
            "bufferView" : 15,
            "componentType" : 5123,
            "count" : 1548,
            "type" : "SCALAR"
        },
        {
            "bufferView" : 16,
            "componentType" : 5126,
            "count" : 1132,
            "max" : [
                2.6939005851745605,
                1.025343418121338,
                -0.7934067249298096
            ],
            "min" : [
                0.24192410707473755,
                0.2634982466697693,
                -1.9384634494781494
            ],
            "type" : "VEC3"
        },
        {
            "bufferView" : 17,
            "componentType" : 5126,
            "count" : 1132,
            "type" : "VEC3"
        },
        {
            "bufferView" : 18,
            "componentType" : 5126,
            "count" : 1132,
            "type" : "VEC2"
        },
        {
            "bufferView" : 19,
            "componentType" : 5123,
            "count" : 3276,
            "type" : "SCALAR"
        },
        {
            "bufferView" : 20,
            "componentType" : 5126,
            "count" : 3344,
            "max" : [
                2.659977912902832,
                1.863295316696167,
                -0.554905891418457
            ],
            "min" : [
                0.2966800630092621,
                1.482879877090454,
                -1.975275993347168
            ],
            "type" : "VEC3"
        },
        {
            "bufferView" : 21,
            "componentType" : 5126,
            "count" : 3344,
            "type" : "VEC3"
        },
        {
            "bufferView" : 22,
            "componentType" : 5126,
            "count" : 3344,
            "type" : "VEC2"
        },
        {
            "bufferView" : 23,
            "componentType" : 5123,
            "count" : 9600,
            "type" : "SCALAR"
        }
    ],
    "bufferViews" : [
        {
            "buffer" : 0,
            "byteLength" : 1356,
            "byteOffset" : 0
        },
        {
            "buffer" : 0,
            "byteLength" : 1356,
            "byteOffset" : 1356
        },
        {
            "buffer" : 0,
            "byteLength" : 904,
            "byteOffset" : 2712
        },
        {
            "buffer" : 0,
            "byteLength" : 840,
            "byteOffset" : 3616
        },
        {
            "buffer" : 0,
            "byteLength" : 23856,
            "byteOffset" : 4456
        },
        {
            "buffer" : 0,
            "byteLength" : 23856,
            "byteOffset" : 28312
        },
        {
            "buffer" : 0,
            "byteLength" : 15904,
            "byteOffset" : 52168
        },
        {
            "buffer" : 0,
            "byteLength" : 19440,
            "byteOffset" : 68072
        },
        {
            "buffer" : 0,
            "byteLength" : 55656,
            "byteOffset" : 87512
        },
        {
            "buffer" : 0,
            "byteLength" : 55656,
            "byteOffset" : 143168
        },
        {
            "buffer" : 0,
            "byteLength" : 37104,
            "byteOffset" : 198824
        },
        {
            "buffer" : 0,
            "byteLength" : 26664,
            "byteOffset" : 235928
        },
        {
            "buffer" : 0,
            "byteLength" : 6432,
            "byteOffset" : 262592
        },
        {
            "buffer" : 0,
            "byteLength" : 6432,
            "byteOffset" : 269024
        },
        {
            "buffer" : 0,
            "byteLength" : 4288,
            "byteOffset" : 275456
        },
        {
            "buffer" : 0,
            "byteLength" : 3096,
            "byteOffset" : 279744
        },
        {
            "buffer" : 0,
            "byteLength" : 13584,
            "byteOffset" : 282840
        },
        {
            "buffer" : 0,
            "byteLength" : 13584,
            "byteOffset" : 296424
        },
        {
            "buffer" : 0,
            "byteLength" : 9056,
            "byteOffset" : 310008
        },
        {
            "buffer" : 0,
            "byteLength" : 6552,
            "byteOffset" : 319064
        },
        {
            "buffer" : 0,
            "byteLength" : 40128,
            "byteOffset" : 325616
        },
        {
            "buffer" : 0,
            "byteLength" : 40128,
            "byteOffset" : 365744
        },
        {
            "buffer" : 0,
            "byteLength" : 26752,
            "byteOffset" : 405872
        },
        {
            "buffer" : 0,
            "byteLength" : 19200,
            "byteOffset" : 432624
        }
    ],
    "buffers" : [
        {
            "byteLength" : 451824,
            "uri" : "data:application/octet-stream;base64,"
        }
    ]
}
