{
    "asset" : {
        "generator" : "Khronos glTF Blender I/O v1.8.19",
        "version" : "2.0"
    },
    "scene" : 0,
    "scenes" : [
        {
            "name" : "Scene",
            "nodes" : [
                0
            ]
        }
    ],
    "nodes" : [
        {
            "mesh" : 0,
            "name" : "125767_22_12_15_04_37_19_5"
        }
    ],
    "materials" : [
        {
            "doubleSided" : true,
            "name" : "125767_22_12_15_04_37_19_5",
            "pbrMetallicRoughness" : {
                "baseColorTexture" : {
                    "index" : 0
                },
                "metallicFactor" : 0
            }
        },
        {
            "doubleSided" : true,
            "name" : "125767_22_12_15_04_37_19_0",
            "pbrMetallicRoughness" : {
                "baseColorTexture" : {
                    "index" : 1
                },
                "metallicFactor" : 0
            }
        },
        {
            "doubleSided" : true,
            "name" : "125767_22_12_15_04_37_19_1",
            "pbrMetallicRoughness" : {
                "baseColorTexture" : {
                    "index" : 2
                },
                "metallicFactor" : 0
            }
        },
        {
            "doubleSided" : true,
            "name" : "125767_22_12_15_04_37_19_2",
            "pbrMetallicRoughness" : {
                "baseColorTexture" : {
                    "index" : 3
                },
                "metallicFactor" : 0
            }
        },
        {
            "doubleSided" : true,
            "name" : "125767_22_12_15_04_37_19_3",
            "pbrMetallicRoughness" : {
                "baseColorTexture" : {
                    "index" : 4
                },
                "metallicFactor" : 0
            }
        },
        {
            "doubleSided" : true,
            "name" : "125767_22_12_15_04_37_19_4",
            "pbrMetallicRoughness" : {
                "baseColorTexture" : {
                    "index" : 5
                },
                "metallicFactor" : 0
            }
        }
    ],
    "meshes" : [
        {
            "name" : "125767_22_12_15_04_37_19_5",
            "primitives" : [
                {
                    "attributes" : {
                        "POSITION" : 0,
                        "NORMAL" : 1,
                        "TEXCOORD_0" : 2
                    },
                    "indices" : 3,
                    "material" : 0
                },
                {
                    "attributes" : {
                        "POSITION" : 4,
                        "NORMAL" : 5,
                        "TEXCOORD_0" : 6
                    },
                    "indices" : 7,
                    "material" : 1
                },
                {
                    "attributes" : {
                        "POSITION" : 8,
                        "NORMAL" : 9,
                        "TEXCOORD_0" : 10
                    },
                    "indices" : 11,
                    "material" : 2
                },
                {
                    "attributes" : {
                        "POSITION" : 12,
                        "NORMAL" : 13,
                        "TEXCOORD_0" : 14
                    },
                    "indices" : 15,
                    "material" : 3
                },
                {
                    "attributes" : {
                        "POSITION" : 16,
                        "NORMAL" : 17,
                        "TEXCOORD_0" : 18
                    },
                    "indices" : 19,
                    "material" : 4
                },
                {
                    "attributes" : {
                        "POSITION" : 20,
                        "NORMAL" : 21,
                        "TEXCOORD_0" : 22
                    },
                    "indices" : 23,
                    "material" : 5
                }
            ]
        }
    ],
    "textures" : [
        {
            "sampler" : 0,
            "source" : 0
        },
        {
            "sampler" : 0,
            "source" : 1
        },
        {
            "sampler" : 0,
            "source" : 2
        },
        {
            "sampler" : 0,
            "source" : 3
        },
        {
            "sampler" : 0,
            "source" : 4
        },
        {
            "sampler" : 0,
            "source" : 5
        }
    ],
    "images" : [
        {
            "bufferView" : 4,
            "mimeType" : "image/png",
            "name" : "125767_22_12_15_04_37_19_5_color"
        },
        {
            "bufferView" : 9,
            "mimeType" : "image/png",
            "name" : "125767_22_12_15_04_37_19_0_color"
        },
        {
            "bufferView" : 14,
            "mimeType" : "image/png",
            "name" : "125767_22_12_15_04_37_19_1_color"
        },
        {
            "bufferView" : 19,
            "mimeType" : "image/png",
            "name" : "125767_22_12_15_04_37_19_2_color"
        },
        {
            "bufferView" : 24,
            "mimeType" : "image/png",
            "name" : "125767_22_12_15_04_37_19_3_color"
        },
        {
            "bufferView" : 29,
            "mimeType" : "image/png",
            "name" : "125767_22_12_15_04_37_19_4_color"
        }
    ],
    "accessors" : [
        {
            "bufferView" : 0,
            "componentType" : 5126,
            "count" : 1707,
            "max" : [
                3.7490296363830566,
                -0.06863710284233093,
                2.4915473461151123
            ],
            "min" : [
                3.374284267425537,
                -0.24673694372177124,
                2.1168034076690674
            ],
            "type" : "VEC3"
        },
        {
            "bufferView" : 1,
            "componentType" : 5126,
            "count" : 1707,
            "type" : "VEC3"
        },
        {
            "bufferView" : 2,
            "componentType" : 5126,
            "count" : 1707,
            "type" : "VEC2"
        },
        {
            "bufferView" : 3,
            "componentType" : 5123,
            "count" : 6324,
            "type" : "SCALAR"
        },
        {
            "bufferView" : 5,
            "componentType" : 5126,
            "count" : 3502,
            "max" : [
                3.8446617126464844,
                -0.05802328139543533,
                2.5881099700927734
            ],
            "min" : [
                3.2977185249328613,
                -0.7024203538894653,
                2.0403668880462646
            ],
            "type" : "VEC3"
        },
        {
            "bufferView" : 6,
            "componentType" : 5126,
            "count" : 3502,
            "type" : "VEC3"
        },
        {
            "bufferView" : 7,
            "componentType" : 5126,
            "count" : 3502,
            "type" : "VEC2"
        },
        {
            "bufferView" : 8,
            "componentType" : 5123,
            "count" : 16038,
            "type" : "SCALAR"
        },
        {
            "bufferView" : 10,
            "componentType" : 5126,
            "count" : 7553,
            "max" : [
                3.899332046508789,
                0.1832418143749237,
                2.651123046875
            ],
            "min" : [
                3.2072501182556152,
                0.14273768663406372,
                1.9555649757385254
            ],
            "type" : "VEC3"
        },
        {
            "bufferView" : 11,
            "componentType" : 5126,
            "count" : 7553,
            "type" : "VEC3"
        },
        {
            "bufferView" : 12,
            "componentType" : 5126,
            "count" : 7553,
            "type" : "VEC2"
        },
        {
            "bufferView" : 13,
            "componentType" : 5123,
            "count" : 38544,
            "type" : "SCALAR"
        },
        {
            "bufferView" : 15,
            "componentType" : 5126,
            "count" : 2838,
            "max" : [
                3.8602466583251953,
                0.2985112965106964,
                2.609666109085083
            ],
            "min" : [
                3.254551410675049,
                -0.09748036414384842,
                2.0036544799804688
            ],
            "type" : "VEC3"
        },
        {
            "bufferView" : 16,
            "componentType" : 5126,
            "count" : 2838,
            "type" : "VEC3"
        },
        {
            "bufferView" : 17,
            "componentType" : 5126,
            "count" : 2838,
            "type" : "VEC2"
        },
        {
            "bufferView" : 18,
            "componentType" : 5123,
            "count" : 11034,
            "type" : "SCALAR"
        },
        {
            "bufferView" : 20,
            "componentType" : 5126,
            "count" : 7241,
            "max" : [
                3.9057319164276123,
                0.21630030870437622,
                2.6427414417266846
            ],
            "min" : [
                3.2358579635620117,
                0.1757970154285431,
                1.9406611919403076
            ],
            "type" : "VEC3"
        },
        {
            "bufferView" : 21,
            "componentType" : 5126,
            "count" : 7241,
            "type" : "VEC3"
        },
        {
            "bufferView" : 22,
            "componentType" : 5126,
            "count" : 7241,
            "type" : "VEC2"
        },
        {
            "bufferView" : 23,
            "componentType" : 5123,
            "count" : 38544,
            "type" : "SCALAR"
        },
        {
            "bufferView" : 25,
            "componentType" : 5126,
            "count" : 1693,
            "max" : [
                3.7483298778533936,
                -0.06853588670492172,
                2.5097618103027344
            ],
            "min" : [
                3.3735854625701904,
                -0.246741384267807,
                2.135016918182373
            ],
            "type" : "VEC3"
        },
        {
            "bufferView" : 26,
            "componentType" : 5126,
            "count" : 1693,
            "type" : "VEC3"
        },
        {
            "bufferView" : 27,
            "componentType" : 5126,
            "count" : 1693,
            "type" : "VEC2"
        },
        {
            "bufferView" : 28,
            "componentType" : 5123,
            "count" : 6324,
            "type" : "SCALAR"
        }
    ],
    "bufferViews" : [
        {
            "buffer" : 0,
            "byteLength" : 20484,
            "byteOffset" : 0
        },
        {
            "buffer" : 0,
            "byteLength" : 20484,
            "byteOffset" : 20484
        },
        {
            "buffer" : 0,
            "byteLength" : 13656,
            "byteOffset" : 40968
        },
        {
            "buffer" : 0,
            "byteLength" : 12648,
            "byteOffset" : 54624
        },
        {
            "buffer" : 0,
            "byteLength" : 42725,
            "byteOffset" : 67272
        },
        {
            "buffer" : 0,
            "byteLength" : 42024,
            "byteOffset" : 110000
        },
        {
            "buffer" : 0,
            "byteLength" : 42024,
            "byteOffset" : 152024
        },
        {
            "buffer" : 0,
            "byteLength" : 28016,
            "byteOffset" : 194048
        },
        {
            "buffer" : 0,
            "byteLength" : 32076,
            "byteOffset" : 222064
        },
        {
            "buffer" : 0,
            "byteLength" : 158367,
            "byteOffset" : 254140
        },
        {
            "buffer" : 0,
            "byteLength" : 90636,
            "byteOffset" : 412508
        },
        {
            "buffer" : 0,
            "byteLength" : 90636,
            "byteOffset" : 503144
        },
        {
            "buffer" : 0,
            "byteLength" : 60424,
            "byteOffset" : 593780
        },
        {
            "buffer" : 0,
            "byteLength" : 77088,
            "byteOffset" : 654204
        },
        {
            "buffer" : 0,
            "byteLength" : 43224,
            "byteOffset" : 731292
        },
        {
            "buffer" : 0,
            "byteLength" : 34056,
            "byteOffset" : 774516
        },
        {
            "buffer" : 0,
            "byteLength" : 34056,
            "byteOffset" : 808572
        },
        {
            "buffer" : 0,
            "byteLength" : 22704,
            "byteOffset" : 842628
        },
        {
            "buffer" : 0,
            "byteLength" : 22068,
            "byteOffset" : 865332
        },
        {
            "buffer" : 0,
            "byteLength" : 282849,
            "byteOffset" : 887400
        },
        {
            "buffer" : 0,
            "byteLength" : 86892,
            "byteOffset" : 1170252
        },
        {
            "buffer" : 0,
            "byteLength" : 86892,
            "byteOffset" : 1257144
        },
        {
            "buffer" : 0,
            "byteLength" : 57928,
            "byteOffset" : 1344036
        },
        {
            "buffer" : 0,
            "byteLength" : 77088,
            "byteOffset" : 1401964
        },
        {
            "buffer" : 0,
            "byteLength" : 42666,
            "byteOffset" : 1479052
        },
        {
            "buffer" : 0,
            "byteLength" : 20316,
            "byteOffset" : 1521720
        },
        {
            "buffer" : 0,
            "byteLength" : 20316,
            "byteOffset" : 1542036
        },
        {
            "buffer" : 0,
            "byteLength" : 13544,
            "byteOffset" : 1562352
        },
        {
            "buffer" : 0,
            "byteLength" : 12648,
            "byteOffset" : 1575896
        },
        {
            "buffer" : 0,
            "byteLength" : 42569,
            "byteOffset" : 1588544
        }
    ],
    "samplers" : [
        {
            "magFilter" : 9729,
            "minFilter" : 9987
        }
    ],
    "buffers" : [
        {
            "byteLength" : 1631116,
            "uri" : "data:application/octet-stream;base64,"
        }
    ]
}
