{
    "asset" : {
        "generator" : "Khronos glTF Blender I/O v1.8.19",
        "version" : "2.0"
    },
    "extensionsUsed" : [
        "KHR_materials_clearcoat"
    ],
    "scene" : 0,
    "scenes" : [
        {
            "name" : "Scene",
            "nodes" : [
                0
            ]
        }
    ],
    "nodes" : [
        {
            "mesh" : 0,
            "name" : "126968_22_12_15_19_36_16.001"
        }
    ],
    "materials" : [
        {
            "doubleSided" : true,
            "extensions" : {
                "KHR_materials_clearcoat" : {
                    "clearcoatFactor" : 0.21674877405166626,
                    "clearcoatRoughnessFactor" : 0.029999999329447746
                }
            },
            "name" : "material_0",
            "pbrMetallicRoughness" : {
                "baseColorFactor" : [
                    0.8000000715255737,
                    0.4988917410373688,
                    0,
                    1
                ],
                "metallicFactor" : 0.7192118167877197,
                "roughnessFactor" : 0
            }
        }
    ],
    "meshes" : [
        {
            "name" : "126968_22_12_15_19_36_16.001",
            "primitives" : [
                {
                    "attributes" : {
                        "POSITION" : 0,
                        "NORMAL" : 1,
                        "TEXCOORD_0" : 2
                    },
                    "indices" : 3,
                    "material" : 0
                }
            ]
        }
    ],
    "accessors" : [
        {
            "bufferView" : 0,
            "componentType" : 5126,
            "count" : 26241,
            "max" : [
                2.4193315505981445,
                1.1321789026260376,
                1.5378483533859253
            ],
            "min" : [
                -2.9780945777893066,
                -0.9959627389907837,
                -1.6048619747161865
            ],
            "type" : "VEC3"
        },
        {
            "bufferView" : 1,
            "componentType" : 5126,
            "count" : 26241,
            "type" : "VEC3"
        },
        {
            "bufferView" : 2,
            "componentType" : 5126,
            "count" : 26241,
            "type" : "VEC2"
        },
        {
            "bufferView" : 3,
            "componentType" : 5123,
            "count" : 26244,
            "type" : "SCALAR"
        }
    ],
    "bufferViews" : [
        {
            "buffer" : 0,
            "byteLength" : 314892,
            "byteOffset" : 0
        },
        {
            "buffer" : 0,
            "byteLength" : 314892,
            "byteOffset" : 314892
        },
        {
            "buffer" : 0,
            "byteLength" : 209928,
            "byteOffset" : 629784
        },
        {
            "buffer" : 0,
            "byteLength" : 52488,
            "byteOffset" : 839712
        }
    ],
    "buffers" : [
        {
            "byteLength" : 892200,
            "uri" : "data:application/octet-stream;base64,"
        }
    ]
}
