{
    "asset" : {
        "generator" : "Khronos glTF Blender I/O v1.8.19",
        "version" : "2.0"
    },
    "scene" : 0,
    "scenes" : [
        {
            "name" : "Scene",
            "nodes" : [
                0
            ]
        }
    ],
    "nodes" : [
        {
            "mesh" : 0,
            "name" : "Gorillas",
            "translation" : [
                0,
                -0.05509413778781891,
                0
            ]
        }
    ],
    "materials" : [
        {
            "doubleSided" : true,
            "name" : "textured_0.003",
            "pbrMetallicRoughness" : {
                "baseColorTexture" : {
                    "index" : 0
                },
                "metallicFactor" : 0,
                "roughnessFactor" : 0.9683772325515747
            }
        }
    ],
    "meshes" : [
        {
            "name" : "textured.003",
            "primitives" : [
                {
                    "attributes" : {
                        "POSITION" : 0,
                        "NORMAL" : 1,
                        "TEXCOORD_0" : 2
                    },
                    "indices" : 3,
                    "material" : 0
                }
            ]
        }
    ],
    "textures" : [
        {
            "sampler" : 0,
            "source" : 0
        }
    ],
    "images" : [
        {
            "bufferView" : 4,
            "mimeType" : "image/jpeg",
            "name" : "textured_0_7aMc5FER"
        }
    ],
    "accessors" : [
        {
            "bufferView" : 0,
            "componentType" : 5126,
            "count" : 29118,
            "max" : [
                -1.4299695491790771,
                0.2031284123659134,
                0.6216380596160889
            ],
            "min" : [
                -1.6769046783447266,
                0.04815225675702095,
                0.21711191534996033
            ],
            "type" : "VEC3"
        },
        {
            "bufferView" : 1,
            "componentType" : 5126,
            "count" : 29118,
            "type" : "VEC3"
        },
        {
            "bufferView" : 2,
            "componentType" : 5126,
            "count" : 29118,
            "type" : "VEC2"
        },
        {
            "bufferView" : 3,
            "componentType" : 5123,
            "count" : 31248,
            "type" : "SCALAR"
        }
    ],
    "bufferViews" : [
        {
            "buffer" : 0,
            "byteLength" : 349416,
            "byteOffset" : 0
        },
        {
            "buffer" : 0,
            "byteLength" : 349416,
            "byteOffset" : 349416
        },
        {
            "buffer" : 0,
            "byteLength" : 232944,
            "byteOffset" : 698832
        },
        {
            "buffer" : 0,
            "byteLength" : 62496,
            "byteOffset" : 931776
        },
        {
            "buffer" : 0,
            "byteLength" : 888316,
            "byteOffset" : 994272
        }
    ],
    "samplers" : [
        {
            "magFilter" : 9729,
            "minFilter" : 9987
        }
    ],
    "buffers" : [
        {
            "byteLength" : 1882588,
            "uri" : "data:application/octet-stream;base64,"
        }
    ]
}
