{
    "asset" : {
        "generator" : "Khronos glTF Blender I/O v1.8.19",
        "version" : "2.0"
    },
    "scene" : 0,
    "scenes" : [
        {
            "name" : "Scene",
            "nodes" : [
                0,
                1,
                2,
                3
            ]
        }
    ],
    "nodes" : [
        {
            "mesh" : 0,
            "name" : "Cube.006",
            "scale" : [
                1.998956561088562,
                0.10590378195047379,
                6.5158491134643555
            ],
            "translation" : [
                -1.3782775402069092,
                5.808845043182373,
                -6.3676438331604
            ]
        },
        {
            "mesh" : 1,
            "name" : "Cube.003",
            "scale" : [
                -0.033409953117370605,
                2.8507158756256104,
                -0.06608704477548599
            ],
            "translation" : [
                -3.3637003898620605,
                8.730254173278809,
                -0.09300137311220169
            ]
        },
        {
            "mesh" : 2,
            "name" : "Cylinder.001",
            "scale" : [
                0.33479994535446167,
                -0.05672501027584076,
                0.30000001192092896
            ],
            "translation" : [
                3.2262778282165527,
                -0.23698139190673828,
                0.294958233833313
            ]
        },
        {
            "mesh" : 3,
            "name" : "Cube.001",
            "scale" : [
                1,
                0.05223793536424637,
                1.2593451738357544
            ],
            "translation" : [
                -2.365827798843384,
                9.293265342712402,
                -1.3086618185043335
            ]
        }
    ],
    "materials" : [
        {
            "doubleSided" : true,
            "name" : "black.001",
            "pbrMetallicRoughness" : {
                "baseColorFactor" : [
                    0.019174110144376755,
                    0.019174110144376755,
                    0.019174110144376755,
                    1
                ],
                "metallicFactor" : 0.7305699586868286,
                "roughnessFactor" : 0.5
            }
        },
        {
            "doubleSided" : true,
            "name" : "black",
            "pbrMetallicRoughness" : {
                "baseColorFactor" : [
                    0.019174110144376755,
                    0.019174110144376755,
                    0.019174110144376755,
                    1
                ],
                "metallicFactor" : 0.7305699586868286,
                "roughnessFactor" : 0.5
            }
        },
        {
            "doubleSided" : true,
            "name" : "black.002",
            "pbrMetallicRoughness" : {
                "baseColorFactor" : [
                    0.019174110144376755,
                    0.019174110144376755,
                    0.019174110144376755,
                    1
                ],
                "metallicFactor" : 0.7305699586868286,
                "roughnessFactor" : 0.5
            }
        },
        {
            "doubleSided" : true,
            "name" : "Material.008",
            "pbrMetallicRoughness" : {
                "baseColorFactor" : [
                    0.23226076364517212,
                    0.23226076364517212,
                    0.23226076364517212,
                    1
                ],
                "roughnessFactor" : 0.5
            }
        },
        {
            "doubleSided" : true,
            "name" : "Material.002",
            "pbrMetallicRoughness" : {
                "baseColorFactor" : [
                    0.23226076364517212,
                    0.23226076364517212,
                    0.23226076364517212,
                    1
                ],
                "roughnessFactor" : 0.5
            }
        },
        {
            "doubleSided" : true,
            "name" : "Material.009",
            "pbrMetallicRoughness" : {
                "baseColorFactor" : [
                    0.416399747133255,
                    0.416399747133255,
                    0.416399747133255,
                    1
                ],
                "metallicFactor" : 0.7305699586868286,
                "roughnessFactor" : 0.5
            }
        }
    ],
    "meshes" : [
        {
            "name" : "Cube.027",
            "primitives" : [
                {
                    "attributes" : {
                        "POSITION" : 0,
                        "NORMAL" : 1,
                        "TEXCOORD_0" : 2
                    },
                    "indices" : 3,
                    "material" : 0
                }
            ]
        },
        {
            "name" : "Cube.029",
            "primitives" : [
                {
                    "attributes" : {
                        "POSITION" : 4,
                        "NORMAL" : 5,
                        "TEXCOORD_0" : 6
                    },
                    "indices" : 7,
                    "material" : 1
                }
            ]
        },
        {
            "name" : "Cylinder.012",
            "primitives" : [
                {
                    "attributes" : {
                        "POSITION" : 8,
                        "NORMAL" : 9,
                        "TEXCOORD_0" : 10
                    },
                    "indices" : 11,
                    "material" : 2
                },
                {
                    "attributes" : {
                        "POSITION" : 12,
                        "NORMAL" : 13,
                        "TEXCOORD_0" : 14
                    },
                    "indices" : 15,
                    "material" : 3
                },
                {
                    "attributes" : {
                        "POSITION" : 16,
                        "NORMAL" : 17,
                        "TEXCOORD_0" : 18
                    },
                    "indices" : 19,
                    "material" : 4
                },
                {
                    "attributes" : {
                        "POSITION" : 20,
                        "NORMAL" : 21,
                        "TEXCOORD_0" : 22
                    },
                    "indices" : 23,
                    "material" : 5
                }
            ]
        },
        {
            "name" : "Cube.030",
            "primitives" : [
                {
                    "attributes" : {
                        "POSITION" : 24,
                        "NORMAL" : 25,
                        "TEXCOORD_0" : 26
                    },
                    "indices" : 27,
                    "material" : 1
                },
                {
                    "attributes" : {
                        "POSITION" : 28,
                        "NORMAL" : 29,
                        "TEXCOORD_0" : 30
                    },
                    "indices" : 31,
                    "material" : 4
                }
            ]
        }
    ],
    "accessors" : [
        {
            "bufferView" : 0,
            "componentType" : 5126,
            "count" : 123,
            "max" : [
                1,
                1.746606469154358,
                1
            ],
            "min" : [
                -0.9727770090103149,
                -1,
                -1
            ],
            "type" : "VEC3"
        },
        {
            "bufferView" : 1,
            "componentType" : 5126,
            "count" : 123,
            "type" : "VEC3"
        },
        {
            "bufferView" : 2,
            "componentType" : 5126,
            "count" : 123,
            "type" : "VEC2"
        },
        {
            "bufferView" : 3,
            "componentType" : 5123,
            "count" : 420,
            "type" : "SCALAR"
        },
        {
            "bufferView" : 4,
            "componentType" : 5126,
            "count" : 14,
            "max" : [
                1,
                1,
                1
            ],
            "min" : [
                -1,
                -1,
                -1
            ],
            "type" : "VEC3"
        },
        {
            "bufferView" : 5,
            "componentType" : 5126,
            "count" : 14,
            "type" : "VEC3"
        },
        {
            "bufferView" : 6,
            "componentType" : 5126,
            "count" : 14,
            "type" : "VEC2"
        },
        {
            "bufferView" : 7,
            "componentType" : 5123,
            "count" : 36,
            "type" : "SCALAR"
        },
        {
            "bufferView" : 8,
            "componentType" : 5126,
            "count" : 4692,
            "max" : [
                2.4385557174682617,
                1,
                1.000000238418579
            ],
            "min" : [
                -21.199996948242188,
                -251.32139587402344,
                -45.3599967956543
            ],
            "type" : "VEC3"
        },
        {
            "bufferView" : 9,
            "componentType" : 5126,
            "count" : 4692,
            "type" : "VEC3"
        },
        {
            "bufferView" : 10,
            "componentType" : 5126,
            "count" : 4692,
            "type" : "VEC2"
        },
        {
            "bufferView" : 11,
            "componentType" : 5123,
            "count" : 13332,
            "type" : "SCALAR"
        },
        {
            "bufferView" : 12,
            "componentType" : 5126,
            "count" : 844,
            "max" : [
                -10.955622673034668,
                -48.39207458496094,
                0.4427177906036377
            ],
            "min" : [
                -17.091861724853516,
                -63.93876647949219,
                -44.7835807800293
            ],
            "type" : "VEC3"
        },
        {
            "bufferView" : 13,
            "componentType" : 5126,
            "count" : 844,
            "type" : "VEC3"
        },
        {
            "bufferView" : 14,
            "componentType" : 5126,
            "count" : 844,
            "type" : "VEC2"
        },
        {
            "bufferView" : 15,
            "componentType" : 5123,
            "count" : 1548,
            "type" : "SCALAR"
        },
        {
            "bufferView" : 16,
            "componentType" : 5126,
            "count" : 1752,
            "max" : [
                -3.7364091873168945,
                -95.0755615234375,
                0.4080657958984375
            ],
            "min" : [
                -13.482254028320312,
                -157.3057403564453,
                -44.852882385253906
            ],
            "type" : "VEC3"
        },
        {
            "bufferView" : 17,
            "componentType" : 5126,
            "count" : 1752,
            "type" : "VEC3"
        },
        {
            "bufferView" : 18,
            "componentType" : 5126,
            "count" : 1752,
            "type" : "VEC2"
        },
        {
            "bufferView" : 19,
            "componentType" : 5123,
            "count" : 3108,
            "type" : "SCALAR"
        },
        {
            "bufferView" : 20,
            "componentType" : 5126,
            "count" : 3344,
            "max" : [
                -0.4181390702724457,
                -214.11573791503906,
                -0.6026774644851685
            ],
            "min" : [
                -20.179805755615234,
                -251.253173828125,
                -44.22669982910156
            ],
            "type" : "VEC3"
        },
        {
            "bufferView" : 21,
            "componentType" : 5126,
            "count" : 3344,
            "type" : "VEC3"
        },
        {
            "bufferView" : 22,
            "componentType" : 5126,
            "count" : 3344,
            "type" : "VEC2"
        },
        {
            "bufferView" : 23,
            "componentType" : 5123,
            "count" : 9600,
            "type" : "SCALAR"
        },
        {
            "bufferView" : 24,
            "componentType" : 5126,
            "count" : 997,
            "max" : [
                0.9999997615814209,
                11.517516136169434,
                1.0128854513168335
            ],
            "min" : [
                -1.000000238418579,
                -0.9999999403953552,
                -1.0066674947738647
            ],
            "type" : "VEC3"
        },
        {
            "bufferView" : 25,
            "componentType" : 5126,
            "count" : 997,
            "type" : "VEC3"
        },
        {
            "bufferView" : 26,
            "componentType" : 5126,
            "count" : 997,
            "type" : "VEC2"
        },
        {
            "bufferView" : 27,
            "componentType" : 5123,
            "count" : 4821,
            "type" : "SCALAR"
        },
        {
            "bufferView" : 28,
            "componentType" : 5126,
            "count" : 28,
            "max" : [
                1.031273603439331,
                1.565472960472107,
                0.9853916168212891
            ],
            "min" : [
                -0.9926162958145142,
                0.12711381912231445,
                -0.9853916168212891
            ],
            "type" : "VEC3"
        },
        {
            "bufferView" : 29,
            "componentType" : 5126,
            "count" : 28,
            "type" : "VEC3"
        },
        {
            "bufferView" : 30,
            "componentType" : 5126,
            "count" : 28,
            "type" : "VEC2"
        },
        {
            "bufferView" : 31,
            "componentType" : 5123,
            "count" : 84,
            "type" : "SCALAR"
        }
    ],
    "bufferViews" : [
        {
            "buffer" : 0,
            "byteLength" : 1476,
            "byteOffset" : 0
        },
        {
            "buffer" : 0,
            "byteLength" : 1476,
            "byteOffset" : 1476
        },
        {
            "buffer" : 0,
            "byteLength" : 984,
            "byteOffset" : 2952
        },
        {
            "buffer" : 0,
            "byteLength" : 840,
            "byteOffset" : 3936
        },
        {
            "buffer" : 0,
            "byteLength" : 168,
            "byteOffset" : 4776
        },
        {
            "buffer" : 0,
            "byteLength" : 168,
            "byteOffset" : 4944
        },
        {
            "buffer" : 0,
            "byteLength" : 112,
            "byteOffset" : 5112
        },
        {
            "buffer" : 0,
            "byteLength" : 72,
            "byteOffset" : 5224
        },
        {
            "buffer" : 0,
            "byteLength" : 56304,
            "byteOffset" : 5296
        },
        {
            "buffer" : 0,
            "byteLength" : 56304,
            "byteOffset" : 61600
        },
        {
            "buffer" : 0,
            "byteLength" : 37536,
            "byteOffset" : 117904
        },
        {
            "buffer" : 0,
            "byteLength" : 26664,
            "byteOffset" : 155440
        },
        {
            "buffer" : 0,
            "byteLength" : 10128,
            "byteOffset" : 182104
        },
        {
            "buffer" : 0,
            "byteLength" : 10128,
            "byteOffset" : 192232
        },
        {
            "buffer" : 0,
            "byteLength" : 6752,
            "byteOffset" : 202360
        },
        {
            "buffer" : 0,
            "byteLength" : 3096,
            "byteOffset" : 209112
        },
        {
            "buffer" : 0,
            "byteLength" : 21024,
            "byteOffset" : 212208
        },
        {
            "buffer" : 0,
            "byteLength" : 21024,
            "byteOffset" : 233232
        },
        {
            "buffer" : 0,
            "byteLength" : 14016,
            "byteOffset" : 254256
        },
        {
            "buffer" : 0,
            "byteLength" : 6216,
            "byteOffset" : 268272
        },
        {
            "buffer" : 0,
            "byteLength" : 40128,
            "byteOffset" : 274488
        },
        {
            "buffer" : 0,
            "byteLength" : 40128,
            "byteOffset" : 314616
        },
        {
            "buffer" : 0,
            "byteLength" : 26752,
            "byteOffset" : 354744
        },
        {
            "buffer" : 0,
            "byteLength" : 19200,
            "byteOffset" : 381496
        },
        {
            "buffer" : 0,
            "byteLength" : 11964,
            "byteOffset" : 400696
        },
        {
            "buffer" : 0,
            "byteLength" : 11964,
            "byteOffset" : 412660
        },
        {
            "buffer" : 0,
            "byteLength" : 7976,
            "byteOffset" : 424624
        },
        {
            "buffer" : 0,
            "byteLength" : 9642,
            "byteOffset" : 432600
        },
        {
            "buffer" : 0,
            "byteLength" : 336,
            "byteOffset" : 442244
        },
        {
            "buffer" : 0,
            "byteLength" : 336,
            "byteOffset" : 442580
        },
        {
            "buffer" : 0,
            "byteLength" : 224,
            "byteOffset" : 442916
        },
        {
            "buffer" : 0,
            "byteLength" : 168,
            "byteOffset" : 443140
        }
    ],
    "buffers" : [
        {
            "byteLength" : 443308,
            "uri" : "data:application/octet-stream;base64,"
        }
    ]
}
