{
    "asset" : {
        "generator" : "Khronos glTF Blender I/O v1.8.19",
        "version" : "2.0"
    },
    "scene" : 0,
    "scenes" : [
        {
            "name" : "Scene",
            "nodes" : [
                0
            ]
        }
    ],
    "nodes" : [
        {
            "mesh" : 0,
            "name" : "Nuggets"
        }
    ],
    "materials" : [
        {
            "doubleSided" : true,
            "name" : "Material.005",
            "pbrMetallicRoughness" : {
                "baseColorFactor" : [
                    0.8000000715255737,
                    0.14209891855716705,
                    0.06066145375370979,
                    1
                ],
                "metallicFactor" : 0,
                "roughnessFactor" : 0.8349753618240356
            }
        }
    ],
    "meshes" : [
        {
            "name" : "Circle",
            "primitives" : [
                {
                    "attributes" : {
                        "POSITION" : 0,
                        "NORMAL" : 1,
                        "TEXCOORD_0" : 2
                    },
                    "indices" : 3,
                    "material" : 0
                }
            ]
        }
    ],
    "accessors" : [
        {
            "bufferView" : 0,
            "componentType" : 5126,
            "count" : 1475,
            "max" : [
                3.108259439468384,
                -0.12717163562774658,
                2.563948154449463
            ],
            "min" : [
                0.9355823993682861,
                -0.7742680907249451,
                1.4808263778686523
            ],
            "type" : "VEC3"
        },
        {
            "bufferView" : 1,
            "componentType" : 5126,
            "count" : 1475,
            "type" : "VEC3"
        },
        {
            "bufferView" : 2,
            "componentType" : 5126,
            "count" : 1475,
            "type" : "VEC2"
        },
        {
            "bufferView" : 3,
            "componentType" : 5123,
            "count" : 5928,
            "type" : "SCALAR"
        }
    ],
    "bufferViews" : [
        {
            "buffer" : 0,
            "byteLength" : 17700,
            "byteOffset" : 0
        },
        {
            "buffer" : 0,
            "byteLength" : 17700,
            "byteOffset" : 17700
        },
        {
            "buffer" : 0,
            "byteLength" : 11800,
            "byteOffset" : 35400
        },
        {
            "buffer" : 0,
            "byteLength" : 11856,
            "byteOffset" : 47200
        }
    ],
    "buffers" : [
        {
            "byteLength" : 59056,
            "uri" : "data:application/octet-stream;base64,"
        }
    ]
}
