{
    "asset" : {
        "generator" : "Khronos glTF Blender I/O v1.8.19",
        "version" : "2.0"
    },
    "scene" : 0,
    "scenes" : [
        {
            "name" : "Scene",
            "nodes" : [
                0
            ]
        }
    ],
    "nodes" : [
        {
            "mesh" : 0,
            "name" : "redc"
        }
    ],
    "materials" : [
        {
            "doubleSided" : true,
            "name" : "Material.004",
            "pbrMetallicRoughness" : {
                "baseColorFactor" : [
                    0.5814689993858337,
                    0,
                    0.0182460006326437,
                    1
                ],
                "metallicFactor" : 0.14285700023174286,
                "roughnessFactor" : 0.20000000298023224
            }
        },
        {
            "doubleSided" : true,
            "name" : "Material.006",
            "pbrMetallicRoughness" : {
                "baseColorFactor" : [
                    0.38437798619270325,
                    0.38437798619270325,
                    0.38437798619270325,
                    1
                ],
                "metallicFactor" : 0.7389159798622131,
                "roughnessFactor" : 0.10591137409210205
            }
        }
    ],
    "meshes" : [
        {
            "name" : "Cube.002",
            "primitives" : [
                {
                    "attributes" : {
                        "POSITION" : 0,
                        "NORMAL" : 1,
                        "TEXCOORD_0" : 2
                    },
                    "indices" : 3,
                    "material" : 0
                },
                {
                    "attributes" : {
                        "POSITION" : 4,
                        "NORMAL" : 5,
                        "TEXCOORD_0" : 6
                    },
                    "indices" : 7,
                    "material" : 1
                }
            ]
        }
    ],
    "accessors" : [
        {
            "bufferView" : 0,
            "componentType" : 5126,
            "count" : 3091,
            "max" : [
                -1.4292420148849487,
                -0.004909992218017578,
                1.2866647243499756
            ],
            "min" : [
                -2.0648341178894043,
                -0.7803347706794739,
                -0.40353626012802124
            ],
            "type" : "VEC3"
        },
        {
            "bufferView" : 1,
            "componentType" : 5126,
            "count" : 3091,
            "type" : "VEC3"
        },
        {
            "bufferView" : 2,
            "componentType" : 5126,
            "count" : 3091,
            "type" : "VEC2"
        },
        {
            "bufferView" : 3,
            "componentType" : 5123,
            "count" : 9093,
            "type" : "SCALAR"
        },
        {
            "bufferView" : 4,
            "componentType" : 5126,
            "count" : 164,
            "max" : [
                -1.4450724124908447,
                -0.3312012851238251,
                0.5540409088134766
            ],
            "min" : [
                -1.5122003555297852,
                -0.3777964115142822,
                0.329087495803833
            ],
            "type" : "VEC3"
        },
        {
            "bufferView" : 5,
            "componentType" : 5126,
            "count" : 164,
            "type" : "VEC3"
        },
        {
            "bufferView" : 6,
            "componentType" : 5126,
            "count" : 164,
            "type" : "VEC2"
        },
        {
            "bufferView" : 7,
            "componentType" : 5123,
            "count" : 648,
            "type" : "SCALAR"
        }
    ],
    "bufferViews" : [
        {
            "buffer" : 0,
            "byteLength" : 37092,
            "byteOffset" : 0
        },
        {
            "buffer" : 0,
            "byteLength" : 37092,
            "byteOffset" : 37092
        },
        {
            "buffer" : 0,
            "byteLength" : 24728,
            "byteOffset" : 74184
        },
        {
            "buffer" : 0,
            "byteLength" : 18186,
            "byteOffset" : 98912
        },
        {
            "buffer" : 0,
            "byteLength" : 1968,
            "byteOffset" : 117100
        },
        {
            "buffer" : 0,
            "byteLength" : 1968,
            "byteOffset" : 119068
        },
        {
            "buffer" : 0,
            "byteLength" : 1312,
            "byteOffset" : 121036
        },
        {
            "buffer" : 0,
            "byteLength" : 1296,
            "byteOffset" : 122348
        }
    ],
    "buffers" : [
        {
            "byteLength" : 123644,
            "uri" : "data:application/octet-stream;base64,"
        }
    ]
}
