{
    "asset" : {
        "generator" : "Khronos glTF Blender I/O v1.8.19",
        "version" : "2.0"
    },
    "scene" : 0,
    "scenes" : [
        {
            "name" : "Scene",
            "nodes" : [
                0
            ]
        }
    ],
    "nodes" : [
        {
            "mesh" : 0,
            "name" : "Speaker L"
        }
    ],
    "materials" : [
        {
            "doubleSided" : true,
            "name" : "Material.018",
            "pbrMetallicRoughness" : {
                "baseColorTexture" : {
                    "index" : 0
                },
                "metallicFactor" : 0,
                "roughnessFactor" : 0.5
            }
        },
        {
            "doubleSided" : true,
            "name" : "Material.019",
            "pbrMetallicRoughness" : {
                "baseColorFactor" : [
                    0.597201943397522,
                    0.6038275361061096,
                    0.623960554599762,
                    1
                ],
                "metallicFactor" : 0,
                "roughnessFactor" : 0.5
            }
        },
        {
            "doubleSided" : true,
            "name" : "Material.020",
            "pbrMetallicRoughness" : {
                "baseColorFactor" : [
                    0.05780372396111488,
                    0.050101082772016525,
                    0.03866616263985634,
                    1
                ],
                "metallicFactor" : 0,
                "roughnessFactor" : 0.5
            }
        },
        {
            "doubleSided" : true,
            "name" : "Material.021",
            "pbrMetallicRoughness" : {
                "baseColorFactor" : [
                    0.05221915617585182,
                    0.045320745557546616,
                    0.035066522657871246,
                    1
                ],
                "metallicFactor" : 0,
                "roughnessFactor" : 0.704896867275238
            }
        },
        {
            "doubleSided" : true,
            "name" : "Material.026",
            "pbrMetallicRoughness" : {
                "baseColorTexture" : {
                    "index" : 1
                },
                "metallicFactor" : 0,
                "roughnessFactor" : 0.5
            }
        },
        {
            "doubleSided" : true,
            "name" : "Material.027",
            "pbrMetallicRoughness" : {
                "baseColorFactor" : [
                    0.597201943397522,
                    0.6038275361061096,
                    0.623960554599762,
                    1
                ],
                "metallicFactor" : 0,
                "roughnessFactor" : 0.5
            }
        },
        {
            "doubleSided" : true,
            "name" : "Material.028",
            "pbrMetallicRoughness" : {
                "baseColorFactor" : [
                    0.05780372396111488,
                    0.050101082772016525,
                    0.03866616263985634,
                    1
                ],
                "metallicFactor" : 0,
                "roughnessFactor" : 0.5
            }
        },
        {
            "doubleSided" : true,
            "name" : "Material.029",
            "pbrMetallicRoughness" : {
                "baseColorFactor" : [
                    0.05221915617585182,
                    0.045320745557546616,
                    0.035066522657871246,
                    1
                ],
                "metallicFactor" : 0,
                "roughnessFactor" : 0.704896867275238
            }
        }
    ],
    "meshes" : [
        {
            "name" : "Cube.005",
            "primitives" : [
                {
                    "attributes" : {
                        "POSITION" : 0,
                        "NORMAL" : 1,
                        "TEXCOORD_0" : 2
                    },
                    "indices" : 3,
                    "material" : 0
                },
                {
                    "attributes" : {
                        "POSITION" : 4,
                        "NORMAL" : 5,
                        "TEXCOORD_0" : 6
                    },
                    "indices" : 7,
                    "material" : 1
                },
                {
                    "attributes" : {
                        "POSITION" : 8,
                        "NORMAL" : 9,
                        "TEXCOORD_0" : 10
                    },
                    "indices" : 11,
                    "material" : 2
                },
                {
                    "attributes" : {
                        "POSITION" : 12,
                        "NORMAL" : 13,
                        "TEXCOORD_0" : 14
                    },
                    "indices" : 15,
                    "material" : 3
                },
                {
                    "attributes" : {
                        "POSITION" : 16,
                        "NORMAL" : 17,
                        "TEXCOORD_0" : 18
                    },
                    "indices" : 19,
                    "material" : 4
                },
                {
                    "attributes" : {
                        "POSITION" : 20,
                        "NORMAL" : 21,
                        "TEXCOORD_0" : 22
                    },
                    "indices" : 7,
                    "material" : 5
                },
                {
                    "attributes" : {
                        "POSITION" : 23,
                        "NORMAL" : 24,
                        "TEXCOORD_0" : 25
                    },
                    "indices" : 26,
                    "material" : 6
                },
                {
                    "attributes" : {
                        "POSITION" : 27,
                        "NORMAL" : 28,
                        "TEXCOORD_0" : 29
                    },
                    "indices" : 30,
                    "material" : 7
                }
            ]
        }
    ],
    "textures" : [
        {
            "sampler" : 0,
            "source" : 0
        },
        {
            "sampler" : 0,
            "source" : 0
        }
    ],
    "images" : [
        {
            "bufferView" : 4,
            "mimeType" : "image/png",
            "name" : "Image_0"
        }
    ],
    "accessors" : [
        {
            "bufferView" : 0,
            "componentType" : 5126,
            "count" : 563,
            "max" : [
                1.652470350265503,
                0.7400572299957275,
                -1.5291111469268799
            ],
            "min" : [
                1.3940222263336182,
                0.4106927812099457,
                -1.8375709056854248
            ],
            "type" : "VEC3"
        },
        {
            "bufferView" : 1,
            "componentType" : 5126,
            "count" : 563,
            "type" : "VEC3"
        },
        {
            "bufferView" : 2,
            "componentType" : 5126,
            "count" : 563,
            "type" : "VEC2"
        },
        {
            "bufferView" : 3,
            "componentType" : 5123,
            "count" : 1386,
            "type" : "SCALAR"
        },
        {
            "bufferView" : 5,
            "componentType" : 5126,
            "count" : 559,
            "max" : [
                1.5708353519439697,
                0.559853196144104,
                -1.5636229515075684
            ],
            "min" : [
                1.5107958316802979,
                0.4997992515563965,
                -1.6236624717712402
            ],
            "type" : "VEC3"
        },
        {
            "bufferView" : 6,
            "componentType" : 5126,
            "count" : 559,
            "type" : "VEC3"
        },
        {
            "bufferView" : 7,
            "componentType" : 5126,
            "count" : 559,
            "type" : "VEC2"
        },
        {
            "bufferView" : 8,
            "componentType" : 5123,
            "count" : 2880,
            "type" : "SCALAR"
        },
        {
            "bufferView" : 9,
            "componentType" : 5126,
            "count" : 13714,
            "max" : [
                1.5788636207580566,
                0.564866840839386,
                -1.5674974918365479
            ],
            "min" : [
                1.509700894355774,
                0.4946855902671814,
                -1.5824427604675293
            ],
            "type" : "VEC3"
        },
        {
            "bufferView" : 10,
            "componentType" : 5126,
            "count" : 13714,
            "type" : "VEC3"
        },
        {
            "bufferView" : 11,
            "componentType" : 5126,
            "count" : 13714,
            "type" : "VEC2"
        },
        {
            "bufferView" : 12,
            "componentType" : 5123,
            "count" : 13824,
            "type" : "SCALAR"
        },
        {
            "bufferView" : 13,
            "componentType" : 5126,
            "count" : 2711,
            "max" : [
                1.6174976825714111,
                0.597149133682251,
                -1.5320887565612793
            ],
            "min" : [
                1.4780255556106567,
                0.4565742313861847,
                -1.562183141708374
            ],
            "type" : "VEC3"
        },
        {
            "bufferView" : 14,
            "componentType" : 5126,
            "count" : 2711,
            "type" : "VEC3"
        },
        {
            "bufferView" : 15,
            "componentType" : 5126,
            "count" : 2711,
            "type" : "VEC2"
        },
        {
            "bufferView" : 16,
            "componentType" : 5123,
            "count" : 13824,
            "type" : "SCALAR"
        },
        {
            "bufferView" : 17,
            "componentType" : 5126,
            "count" : 563,
            "max" : [
                2.3701679706573486,
                0.7350757718086243,
                -1.5291111469268799
            ],
            "min" : [
                2.111719846725464,
                0.4057113528251648,
                -1.8375709056854248
            ],
            "type" : "VEC3"
        },
        {
            "bufferView" : 18,
            "componentType" : 5126,
            "count" : 563,
            "type" : "VEC3"
        },
        {
            "bufferView" : 19,
            "componentType" : 5126,
            "count" : 563,
            "type" : "VEC2"
        },
        {
            "bufferView" : 20,
            "componentType" : 5123,
            "count" : 1386,
            "type" : "SCALAR"
        },
        {
            "bufferView" : 21,
            "componentType" : 5126,
            "count" : 559,
            "max" : [
                2.2567949295043945,
                0.5548717379570007,
                -1.563023328781128
            ],
            "min" : [
                2.1967551708221436,
                0.4948178231716156,
                -1.6230628490447998
            ],
            "type" : "VEC3"
        },
        {
            "bufferView" : 22,
            "componentType" : 5126,
            "count" : 559,
            "type" : "VEC3"
        },
        {
            "bufferView" : 23,
            "componentType" : 5126,
            "count" : 559,
            "type" : "VEC2"
        },
        {
            "bufferView" : 24,
            "componentType" : 5126,
            "count" : 13714,
            "max" : [
                2.258227586746216,
                0.5598853826522827,
                -1.566838264465332
            ],
            "min" : [
                2.1890649795532227,
                0.4897041618824005,
                -1.581783652305603
            ],
            "type" : "VEC3"
        },
        {
            "bufferView" : 25,
            "componentType" : 5126,
            "count" : 13714,
            "type" : "VEC3"
        },
        {
            "bufferView" : 26,
            "componentType" : 5126,
            "count" : 13714,
            "type" : "VEC2"
        },
        {
            "bufferView" : 27,
            "componentType" : 5123,
            "count" : 13824,
            "type" : "SCALAR"
        },
        {
            "bufferView" : 28,
            "componentType" : 5126,
            "count" : 2711,
            "max" : [
                2.2871320247650146,
                0.5921676754951477,
                -1.5319182872772217
            ],
            "min" : [
                2.1476597785949707,
                0.4515928030014038,
                -1.5620126724243164
            ],
            "type" : "VEC3"
        },
        {
            "bufferView" : 29,
            "componentType" : 5126,
            "count" : 2711,
            "type" : "VEC3"
        },
        {
            "bufferView" : 30,
            "componentType" : 5126,
            "count" : 2711,
            "type" : "VEC2"
        },
        {
            "bufferView" : 31,
            "componentType" : 5123,
            "count" : 13824,
            "type" : "SCALAR"
        }
    ],
    "bufferViews" : [
        {
            "buffer" : 0,
            "byteLength" : 6756,
            "byteOffset" : 0
        },
        {
            "buffer" : 0,
            "byteLength" : 6756,
            "byteOffset" : 6756
        },
        {
            "buffer" : 0,
            "byteLength" : 4504,
            "byteOffset" : 13512
        },
        {
            "buffer" : 0,
            "byteLength" : 2772,
            "byteOffset" : 18016
        },
        {
            "buffer" : 0,
            "byteLength" : 1380490,
            "byteOffset" : 20788
        },
        {
            "buffer" : 0,
            "byteLength" : 6708,
            "byteOffset" : 1401280
        },
        {
            "buffer" : 0,
            "byteLength" : 6708,
            "byteOffset" : 1407988
        },
        {
            "buffer" : 0,
            "byteLength" : 4472,
            "byteOffset" : 1414696
        },
        {
            "buffer" : 0,
            "byteLength" : 5760,
            "byteOffset" : 1419168
        },
        {
            "buffer" : 0,
            "byteLength" : 164568,
            "byteOffset" : 1424928
        },
        {
            "buffer" : 0,
            "byteLength" : 164568,
            "byteOffset" : 1589496
        },
        {
            "buffer" : 0,
            "byteLength" : 109712,
            "byteOffset" : 1754064
        },
        {
            "buffer" : 0,
            "byteLength" : 27648,
            "byteOffset" : 1863776
        },
        {
            "buffer" : 0,
            "byteLength" : 32532,
            "byteOffset" : 1891424
        },
        {
            "buffer" : 0,
            "byteLength" : 32532,
            "byteOffset" : 1923956
        },
        {
            "buffer" : 0,
            "byteLength" : 21688,
            "byteOffset" : 1956488
        },
        {
            "buffer" : 0,
            "byteLength" : 27648,
            "byteOffset" : 1978176
        },
        {
            "buffer" : 0,
            "byteLength" : 6756,
            "byteOffset" : 2005824
        },
        {
            "buffer" : 0,
            "byteLength" : 6756,
            "byteOffset" : 2012580
        },
        {
            "buffer" : 0,
            "byteLength" : 4504,
            "byteOffset" : 2019336
        },
        {
            "buffer" : 0,
            "byteLength" : 2772,
            "byteOffset" : 2023840
        },
        {
            "buffer" : 0,
            "byteLength" : 6708,
            "byteOffset" : 2026612
        },
        {
            "buffer" : 0,
            "byteLength" : 6708,
            "byteOffset" : 2033320
        },
        {
            "buffer" : 0,
            "byteLength" : 4472,
            "byteOffset" : 2040028
        },
        {
            "buffer" : 0,
            "byteLength" : 164568,
            "byteOffset" : 2044500
        },
        {
            "buffer" : 0,
            "byteLength" : 164568,
            "byteOffset" : 2209068
        },
        {
            "buffer" : 0,
            "byteLength" : 109712,
            "byteOffset" : 2373636
        },
        {
            "buffer" : 0,
            "byteLength" : 27648,
            "byteOffset" : 2483348
        },
        {
            "buffer" : 0,
            "byteLength" : 32532,
            "byteOffset" : 2510996
        },
        {
            "buffer" : 0,
            "byteLength" : 32532,
            "byteOffset" : 2543528
        },
        {
            "buffer" : 0,
            "byteLength" : 21688,
            "byteOffset" : 2576060
        },
        {
            "buffer" : 0,
            "byteLength" : 27648,
            "byteOffset" : 2597748
        }
    ],
    "samplers" : [
        {
            "magFilter" : 9729,
            "minFilter" : 9987
        }
    ],
    "buffers" : [
        {
            "byteLength" : 2625396,
            "uri" : "data:application/octet-stream;base64,"
        }
    ]
}
