{
    "asset" : {
        "generator" : "Khronos glTF Blender I/O v1.8.19",
        "version" : "2.0"
    },
    "scene" : 0,
    "scenes" : [
        {
            "name" : "Scene",
            "nodes" : [
                0
            ]
        }
    ],
    "nodes" : [
        {
            "mesh" : 0,
            "name" : "Black Cabinet"
        }
    ],
    "materials" : [
        {
            "doubleSided" : true,
            "name" : "Material.013",
            "pbrMetallicRoughness" : {
                "baseColorFactor" : [
                    0,
                    0,
                    0,
                    1
                ],
                "metallicFactor" : 0,
                "roughnessFactor" : 0.4000000059604645
            }
        },
        {
            "doubleSided" : true,
            "name" : "Material.014",
            "pbrMetallicRoughness" : {
                "baseColorFactor" : [
                    0,
                    0,
                    0,
                    1
                ],
                "metallicFactor" : 0,
                "roughnessFactor" : 0.4000000059604645
            }
        },
        {
            "doubleSided" : true,
            "name" : "Material.015",
            "pbrMetallicRoughness" : {
                "baseColorFactor" : [
                    0,
                    0,
                    0,
                    1
                ],
                "metallicFactor" : 0.18719211220741272,
                "roughnessFactor" : 0.5
            }
        },
        {
            "doubleSided" : true,
            "name" : "Material.016",
            "pbrMetallicRoughness" : {
                "baseColorTexture" : {
                    "index" : 0
                },
                "metallicFactor" : 0,
                "roughnessFactor" : 0.5
            }
        },
        {
            "doubleSided" : true,
            "name" : "Material.025",
            "pbrMetallicRoughness" : {
                "baseColorFactor" : [
                    0,
                    0,
                    0,
                    1
                ],
                "metallicFactor" : 0,
                "roughnessFactor" : 0.5
            }
        }
    ],
    "meshes" : [
        {
            "name" : "Cube.007",
            "primitives" : [
                {
                    "attributes" : {
                        "POSITION" : 0,
                        "NORMAL" : 1,
                        "TEXCOORD_0" : 2
                    },
                    "indices" : 3,
                    "material" : 0
                },
                {
                    "attributes" : {
                        "POSITION" : 4,
                        "NORMAL" : 5,
                        "TEXCOORD_0" : 6
                    },
                    "indices" : 7,
                    "material" : 1
                },
                {
                    "attributes" : {
                        "POSITION" : 8,
                        "NORMAL" : 9,
                        "TEXCOORD_0" : 10
                    },
                    "indices" : 11,
                    "material" : 2
                },
                {
                    "attributes" : {
                        "POSITION" : 12,
                        "NORMAL" : 13,
                        "TEXCOORD_0" : 14
                    },
                    "indices" : 15,
                    "material" : 3
                },
                {
                    "attributes" : {
                        "POSITION" : 16,
                        "NORMAL" : 17,
                        "TEXCOORD_0" : 18
                    },
                    "indices" : 19,
                    "material" : 4
                }
            ]
        }
    ],
    "textures" : [
        {
            "sampler" : 0,
            "source" : 0
        }
    ],
    "images" : [
        {
            "bufferView" : 16,
            "mimeType" : "image/png",
            "name" : "mirror"
        }
    ],
    "accessors" : [
        {
            "bufferView" : 0,
            "componentType" : 5126,
            "count" : 34,
            "max" : [
                5.088504791259766,
                1.6810070276260376,
                0.6238881945610046
            ],
            "min" : [
                4.398100852966309,
                -0.7755342721939087,
                -1.0167622566223145
            ],
            "type" : "VEC3"
        },
        {
            "bufferView" : 1,
            "componentType" : 5126,
            "count" : 34,
            "type" : "VEC3"
        },
        {
            "bufferView" : 2,
            "componentType" : 5126,
            "count" : 34,
            "type" : "VEC2"
        },
        {
            "bufferView" : 3,
            "componentType" : 5123,
            "count" : 36,
            "type" : "SCALAR"
        },
        {
            "bufferView" : 4,
            "componentType" : 5126,
            "count" : 1262,
            "max" : [
                4.396737098693848,
                1.6810070276260376,
                0.6238882541656494
            ],
            "min" : [
                4.303501129150391,
                -0.7755342721939087,
                -1.0167622566223145
            ],
            "type" : "VEC3"
        },
        {
            "bufferView" : 5,
            "componentType" : 5126,
            "count" : 1262,
            "type" : "VEC3"
        },
        {
            "bufferView" : 6,
            "componentType" : 5126,
            "count" : 1262,
            "type" : "VEC2"
        },
        {
            "bufferView" : 7,
            "componentType" : 5123,
            "count" : 1896,
            "type" : "SCALAR"
        },
        {
            "bufferView" : 8,
            "componentType" : 5126,
            "count" : 136,
            "max" : [
                4.301254749298096,
                1.357729434967041,
                0.5155436396598816
            ],
            "min" : [
                4.228461265563965,
                -0.4102790355682373,
                -0.05022461712360382
            ],
            "type" : "VEC3"
        },
        {
            "bufferView" : 9,
            "componentType" : 5126,
            "count" : 136,
            "type" : "VEC3"
        },
        {
            "bufferView" : 10,
            "componentType" : 5126,
            "count" : 136,
            "type" : "VEC2"
        },
        {
            "bufferView" : 11,
            "componentType" : 5123,
            "count" : 150,
            "type" : "SCALAR"
        },
        {
            "bufferView" : 12,
            "componentType" : 5126,
            "count" : 4,
            "max" : [
                4.240487575531006,
                1.2981750965118408,
                0.46865659952163696
            ],
            "min" : [
                4.240487575531006,
                -0.35303550958633423,
                -0.003568217158317566
            ],
            "type" : "VEC3"
        },
        {
            "bufferView" : 13,
            "componentType" : 5126,
            "count" : 4,
            "type" : "VEC3"
        },
        {
            "bufferView" : 14,
            "componentType" : 5126,
            "count" : 4,
            "type" : "VEC2"
        },
        {
            "bufferView" : 15,
            "componentType" : 5123,
            "count" : 6,
            "type" : "SCALAR"
        },
        {
            "bufferView" : 17,
            "componentType" : 5126,
            "count" : 197,
            "max" : [
                4.397221565246582,
                1.6887189149856567,
                0.4938061237335205
            ],
            "min" : [
                4.270352363586426,
                1.3571815490722656,
                -0.024190440773963928
            ],
            "type" : "VEC3"
        },
        {
            "bufferView" : 18,
            "componentType" : 5126,
            "count" : 197,
            "type" : "VEC3"
        },
        {
            "bufferView" : 19,
            "componentType" : 5126,
            "count" : 197,
            "type" : "VEC2"
        },
        {
            "bufferView" : 20,
            "componentType" : 5123,
            "count" : 264,
            "type" : "SCALAR"
        }
    ],
    "bufferViews" : [
        {
            "buffer" : 0,
            "byteLength" : 408,
            "byteOffset" : 0
        },
        {
            "buffer" : 0,
            "byteLength" : 408,
            "byteOffset" : 408
        },
        {
            "buffer" : 0,
            "byteLength" : 272,
            "byteOffset" : 816
        },
        {
            "buffer" : 0,
            "byteLength" : 72,
            "byteOffset" : 1088
        },
        {
            "buffer" : 0,
            "byteLength" : 15144,
            "byteOffset" : 1160
        },
        {
            "buffer" : 0,
            "byteLength" : 15144,
            "byteOffset" : 16304
        },
        {
            "buffer" : 0,
            "byteLength" : 10096,
            "byteOffset" : 31448
        },
        {
            "buffer" : 0,
            "byteLength" : 3792,
            "byteOffset" : 41544
        },
        {
            "buffer" : 0,
            "byteLength" : 1632,
            "byteOffset" : 45336
        },
        {
            "buffer" : 0,
            "byteLength" : 1632,
            "byteOffset" : 46968
        },
        {
            "buffer" : 0,
            "byteLength" : 1088,
            "byteOffset" : 48600
        },
        {
            "buffer" : 0,
            "byteLength" : 300,
            "byteOffset" : 49688
        },
        {
            "buffer" : 0,
            "byteLength" : 48,
            "byteOffset" : 49988
        },
        {
            "buffer" : 0,
            "byteLength" : 48,
            "byteOffset" : 50036
        },
        {
            "buffer" : 0,
            "byteLength" : 32,
            "byteOffset" : 50084
        },
        {
            "buffer" : 0,
            "byteLength" : 12,
            "byteOffset" : 50116
        },
        {
            "buffer" : 0,
            "byteLength" : 92081,
            "byteOffset" : 50128
        },
        {
            "buffer" : 0,
            "byteLength" : 2364,
            "byteOffset" : 142212
        },
        {
            "buffer" : 0,
            "byteLength" : 2364,
            "byteOffset" : 144576
        },
        {
            "buffer" : 0,
            "byteLength" : 1576,
            "byteOffset" : 146940
        },
        {
            "buffer" : 0,
            "byteLength" : 528,
            "byteOffset" : 148516
        }
    ],
    "samplers" : [
        {
            "magFilter" : 9729,
            "minFilter" : 9987
        }
    ],
    "buffers" : [
        {
            "byteLength" : 149044,
            "uri" : "data:application/octet-stream;base64,"
        }
    ]
}
