{
    "asset" : {
        "generator" : "Khronos glTF Blender I/O v1.8.19",
        "version" : "2.0"
    },
    "scene" : 0,
    "scenes" : [
        {
            "name" : "Scene",
            "nodes" : [
                0
            ]
        }
    ],
    "nodes" : [
        {
            "mesh" : 0,
            "name" : "White Cabinet"
        }
    ],
    "materials" : [
        {
            "doubleSided" : true,
            "name" : "Material.030",
            "pbrMetallicRoughness" : {
                "baseColorFactor" : [
                    0.800000011920929,
                    0.800000011920929,
                    0.800000011920929,
                    1
                ],
                "metallicFactor" : 0,
                "roughnessFactor" : 0.4000000059604645
            }
        },
        {
            "doubleSided" : true,
            "name" : "Material.031",
            "pbrMetallicRoughness" : {
                "metallicFactor" : 0,
                "roughnessFactor" : 0.4000000059604645
            }
        },
        {
            "doubleSided" : true,
            "name" : "pywood",
            "pbrMetallicRoughness" : {
                "baseColorFactor" : [
                    0.5711249709129333,
                    0.4620770215988159,
                    0.34670406579971313,
                    1
                ],
                "metallicFactor" : 0,
                "roughnessFactor" : 0.9532020092010498
            }
        }
    ],
    "meshes" : [
        {
            "name" : "Cube.010",
            "primitives" : [
                {
                    "attributes" : {
                        "POSITION" : 0,
                        "NORMAL" : 1,
                        "TEXCOORD_0" : 2
                    },
                    "indices" : 3,
                    "material" : 0
                },
                {
                    "attributes" : {
                        "POSITION" : 4,
                        "NORMAL" : 5,
                        "TEXCOORD_0" : 6
                    },
                    "indices" : 7,
                    "material" : 1
                },
                {
                    "attributes" : {
                        "POSITION" : 8,
                        "NORMAL" : 9,
                        "TEXCOORD_0" : 10
                    },
                    "indices" : 11,
                    "material" : 2
                }
            ]
        }
    ],
    "accessors" : [
        {
            "bufferView" : 0,
            "componentType" : 5126,
            "count" : 1675,
            "max" : [
                3.5369205474853516,
                1.6362988948822021,
                -0.5333480834960938
            ],
            "min" : [
                3.4428184032440186,
                -0.6376157402992249,
                -2.105703592300415
            ],
            "type" : "VEC3"
        },
        {
            "bufferView" : 1,
            "componentType" : 5126,
            "count" : 1675,
            "type" : "VEC3"
        },
        {
            "bufferView" : 2,
            "componentType" : 5126,
            "count" : 1675,
            "type" : "VEC2"
        },
        {
            "bufferView" : 3,
            "componentType" : 5123,
            "count" : 1794,
            "type" : "SCALAR"
        },
        {
            "bufferView" : 4,
            "componentType" : 5126,
            "count" : 349,
            "max" : [
                3.4976494312286377,
                1.6609759330749512,
                -0.5073646903038025
            ],
            "min" : [
                2.7341339588165283,
                -0.8209473490715027,
                -2.1358754634857178
            ],
            "type" : "VEC3"
        },
        {
            "bufferView" : 5,
            "componentType" : 5126,
            "count" : 349,
            "type" : "VEC3"
        },
        {
            "bufferView" : 6,
            "componentType" : 5126,
            "count" : 349,
            "type" : "VEC2"
        },
        {
            "bufferView" : 7,
            "componentType" : 5123,
            "count" : 402,
            "type" : "SCALAR"
        },
        {
            "bufferView" : 8,
            "componentType" : 5126,
            "count" : 4,
            "max" : [
                2.7341504096984863,
                1.6609759330749512,
                -0.5248193144798279
            ],
            "min" : [
                2.7341341972351074,
                -0.6622927784919739,
                -2.1183383464813232
            ],
            "type" : "VEC3"
        },
        {
            "bufferView" : 9,
            "componentType" : 5126,
            "count" : 4,
            "type" : "VEC3"
        },
        {
            "bufferView" : 10,
            "componentType" : 5126,
            "count" : 4,
            "type" : "VEC2"
        },
        {
            "bufferView" : 11,
            "componentType" : 5123,
            "count" : 6,
            "type" : "SCALAR"
        }
    ],
    "bufferViews" : [
        {
            "buffer" : 0,
            "byteLength" : 20100,
            "byteOffset" : 0
        },
        {
            "buffer" : 0,
            "byteLength" : 20100,
            "byteOffset" : 20100
        },
        {
            "buffer" : 0,
            "byteLength" : 13400,
            "byteOffset" : 40200
        },
        {
            "buffer" : 0,
            "byteLength" : 3588,
            "byteOffset" : 53600
        },
        {
            "buffer" : 0,
            "byteLength" : 4188,
            "byteOffset" : 57188
        },
        {
            "buffer" : 0,
            "byteLength" : 4188,
            "byteOffset" : 61376
        },
        {
            "buffer" : 0,
            "byteLength" : 2792,
            "byteOffset" : 65564
        },
        {
            "buffer" : 0,
            "byteLength" : 804,
            "byteOffset" : 68356
        },
        {
            "buffer" : 0,
            "byteLength" : 48,
            "byteOffset" : 69160
        },
        {
            "buffer" : 0,
            "byteLength" : 48,
            "byteOffset" : 69208
        },
        {
            "buffer" : 0,
            "byteLength" : 32,
            "byteOffset" : 69256
        },
        {
            "buffer" : 0,
            "byteLength" : 12,
            "byteOffset" : 69288
        }
    ],
    "buffers" : [
        {
            "byteLength" : 69300,
            "uri" : "data:application/octet-stream;base64,"
        }
    ]
}
